<svg width="36" height="36" viewBox="0 0 36 36" fill="none" xmlns="http://www.w3.org/2000/svg">
<path d="M4.5 4.5H7.5L8.1 7.5M10.5 19.5H25.5L31.5 7.5H8.1M10.5 19.5L8.1 7.5M10.5 19.5L7.06066 22.9393C6.11571 23.8843 6.78496 25.5 8.12132 25.5H25.5M25.5 25.5C23.8431 25.5 22.5 26.8431 22.5 28.5C22.5 30.1569 23.8431 31.5 25.5 31.5C27.1569 31.5 28.5 30.1569 28.5 28.5C28.5 26.8431 27.1569 25.5 25.5 25.5ZM13.5 28.5C13.5 30.1569 12.1569 31.5 10.5 31.5C8.84315 31.5 7.5 30.1569 7.5 28.5C7.5 26.8431 8.84315 25.5 10.5 25.5C12.1569 25.5 13.5 26.8431 13.5 28.5Z" stroke="white" stroke-width="2" stroke-linecap="round" stroke-linejoin="round"/>
</svg>
